<svg xmlns="http://www.w3.org/2000/svg" width="64" height="64" viewBox="0 0 64 64">
    <g fill="none" fill-rule="evenodd" transform="translate(2 2)">
        <circle cx="30" cy="30" r="30" fill="#131E29" stroke="#FFF100" stroke-width="3"/>
        <path fill="#FFF100" d="M26.07 30.118V44.62c0 .21.17.379.379.379h5.385c.21 0 .378-.17.378-.379v-14.74h3.905c.197 0 .36-.15.377-.345l.375-4.442a.378.378 0 0 0-.377-.41h-4.28v-3.15c0-.739.6-1.337 1.338-1.337h3.01c.208 0 .377-.17.377-.378v-4.441a.378.378 0 0 0-.378-.378h-5.085a5.403 5.403 0 0 0-5.403 5.403v4.281h-2.693a.378.378 0 0 0-.378.379v4.44c0 .21.17.378.378.378h2.693v.237z"/>
    </g>
</svg>
