<svg xmlns="http://www.w3.org/2000/svg" width="40" height="40" viewBox="0 0 40 40">
    <g fill="#C0C5CE" fill-rule="evenodd">
        <path d="M26.25 33.75H17.5a1.249 1.249 0 1 0 0 2.5h-3.75A8.75 8.75 0 0 1 5 27.5V10c.691 0 1.25-.559 1.25-1.25v-7.5C6.25.559 5.691 0 5 0H1.25C.559 0 0 .559 0 1.25v7.5C0 9.441.559 10 1.25 10v18.75C1.25 34.964 6.286 40 12.5 40h10c.691 0 1.25-.559 1.25-1.25v-2.5h2.5a1.249 1.249 0 1 0 0-2.5"/>
        <path d="M17.877 25l2.658-4.429a3.75 3.75 0 0 1 6.43 0L29.622 25H35.3l.625-7.5H20L12.5 25h5.377z"/>
        <path d="M36.45 26.25h-7.535l-3.021-5.036a2.501 2.501 0 0 0-4.287 0l-3.022 5.036h-7.443a.1.1 0 0 1-.1-.091l-.824-9.909h27.065l-.833 10zm2.71-11.727a2.39 2.39 0 0 0-1.76-.773H10.1a2.39 2.39 0 0 0-2.383 2.59l.835 10.026a2.599 2.599 0 0 0 2.59 2.384h7.505c.84 0 1.618-.44 2.05-1.161L23.75 22.5l3.053 5.089a2.391 2.391 0 0 0 2.051 1.161h7.695c1.244 0 2.28-.954 2.384-2.194l.851-10.216a2.39 2.39 0 0 0-.624-1.817z"/>
    </g>
</svg>
