<svg xmlns="http://www.w3.org/2000/svg" width="40" height="31" viewBox="0 0 40 31">
    <g fill="#C0C5CE" fill-rule="evenodd">
        <path d="M18.93 17.252c.164 1.702.698 2.323 1.61 1.864.338-.172.65-.413.93-.728.284-.314.555-.854.816-1.622.17-.497.311-.826.433-.984.123-.161.253-.273.393-.338.278-.128.497-.142.653-.04.157.102.235.308.235.617 0 .73-.337 1.546-1.007 2.479-.67.93-1.486 1.639-2.442 2.122-.894.451-1.675.5-2.342.137-.664-.368-1.065-1.23-1.194-2.574-.296.136-.592.271-.887.401-.084.038-.128-.007-.128-.138 0-.123.047-.3.134-.526.088-.23.163-.355.224-.383.202-.09.4-.183.603-.274v-.27c0-.218.007-.539.024-.959-.286.133-.57.264-.857.39-.084.036-.128-.006-.128-.13 0-.13.047-.308.134-.537.088-.226.163-.353.224-.383.234-.104.466-.212.699-.32.303-2.728 1.45-4.571 3.44-5.583.875-.443 1.63-.576 2.266-.394.632.183.95.645.95 1.36 0 .244-.076.481-.223.718a1.335 1.335 0 0 1-.545.505c-.239.112-.412.132-.523.053-.108-.076-.219-.223-.323-.439-.137-.286-.298-.477-.483-.573-.187-.093-.506-.028-.952.197a2.675 2.675 0 0 0-1.186 1.171c-.276.524-.455 1.21-.533 2.064.751-.375 1.501-.758 2.251-1.131.093-.048.138-.006.138.124 0 .14-.042.32-.128.544-.087.226-.16.355-.226.386-.698.35-1.394.706-2.092 1.055-.003.244-.009.49-.014.736 0 .223.005.382.014.477.769-.384 1.538-.778 2.308-1.162.093-.045.138-.006.138.12 0 .142-.042.324-.128.55-.087.224-.16.354-.226.385-.685.344-1.365.691-2.05 1.033"/>
        <path d="M3.354 26.129c1.6.998 3.276 1.484 5.097 1.484h.003c3.472 0 7.045-1.71 10.827-3.521 3.955-1.892 8.04-3.847 12.265-3.847 1.802 0 3.487.346 5.1 1.053V4.87c-1.604-.998-3.276-1.485-5.1-1.485-3.472 0-7.042 1.71-10.827 3.52-3.952 1.893-8.04 3.849-12.265 3.849-1.802 0-3.49-.347-5.1-1.054v16.428zM8.451 31c-2.815 0-5.35-.849-7.755-2.593A1.703 1.703 0 0 1 0 27.032V6.787C0 6.15.353 5.57.91 5.279a1.672 1.672 0 0 1 1.745.133c1.815 1.317 3.71 1.956 5.799 1.956 3.472 0 7.045-1.71 10.827-3.521C23.236 1.954 27.321 0 31.546 0c2.82 0 5.353.849 7.755 2.593.44.32.699.83.699 1.375v20.245c0 .636-.353 1.216-.913 1.506a1.663 1.663 0 0 1-1.746-.132c-1.81-1.316-3.706-1.956-5.795-1.956-3.472 0-7.045 1.71-10.827 3.52-3.955 1.891-8.04 3.847-12.265 3.849H8.45z"/>
        <path d="M8.061 14c-.848 0-1.664-.09-2.458-.269-.411-.094-.673-.522-.586-.961a.778.778 0 0 1 .902-.626c2.315.526 4.875.175 8.05-1.09.4-.162.834.055.982.473.15.418-.054.886-.445 1.042C12.096 13.53 9.996 14 8.06 14M24.762 8a.77.77 0 0 1-.715-.527c-.144-.418.054-.885.45-1.044 3.464-1.378 6.297-1.748 8.897-1.16.413.093.675.523.59.96-.09.442-.5.712-.905.626-2.313-.523-4.868-.175-8.049 1.095a.747.747 0 0 1-.268.05M8.061 25c-.848 0-1.664-.09-2.458-.269-.411-.094-.673-.522-.586-.961a.78.78 0 0 1 .902-.626c2.315.526 4.875.174 8.05-1.09.4-.162.834.055.982.473.15.418-.054.886-.445 1.042C12.096 24.53 9.996 25 8.06 25M24.762 19a.77.77 0 0 1-.715-.527c-.144-.418.054-.885.45-1.044 3.464-1.38 6.297-1.748 8.897-1.159.413.092.675.522.59.96-.09.44-.5.713-.905.625-2.313-.522-4.868-.175-8.049 1.095a.747.747 0 0 1-.268.05"/>
    </g>
</svg>
