<svg xmlns="http://www.w3.org/2000/svg" width="64" height="64" viewBox="0 0 64 64">
    <g fill="none" fill-rule="evenodd" transform="translate(2 2)">
        <circle cx="30" cy="30" r="30" fill="#131E29" stroke="#FFF100" stroke-width="3"/>
        <g fill="#FFF100">
            <path d="M37.347 20.9a1.713 1.713 0 1 0 0 3.426 1.713 1.713 0 0 0 0-3.427M29.731 34.903a4.615 4.615 0 0 1-4.61-4.61 4.615 4.615 0 0 1 4.61-4.61 4.615 4.615 0 0 1 4.61 4.61 4.615 4.615 0 0 1-4.61 4.61m0-11.807c-3.968 0-7.197 3.229-7.197 7.197s3.229 7.196 7.197 7.196 7.197-3.228 7.197-7.196c0-3.968-3.229-7.197-7.197-7.197"/>
            <path d="M23.777 18.431a6.035 6.035 0 0 0-6.028 6.028v11.667a6.035 6.035 0 0 0 6.028 6.029h11.667a6.035 6.035 0 0 0 6.029-6.029V24.46a6.035 6.035 0 0 0-6.029-6.028H23.777zm11.667 26.473H23.777c-4.84 0-8.777-3.938-8.777-8.778V24.46c0-4.84 3.937-8.777 8.777-8.777h11.667c4.84 0 8.778 3.937 8.778 8.777v11.667c0 4.84-3.938 8.778-8.778 8.778z"/>
        </g>
    </g>
</svg>
