<svg xmlns="http://www.w3.org/2000/svg" width="54" height="54" viewBox="0 0 54 54">
    <g fill="#131E29" fill-rule="evenodd">
        <path d="M41.256 9.958a3.141 3.141 0 1 0 0 6.283 3.141 3.141 0 0 0 0-6.283M27.293 35.631c-4.66 0-8.452-3.791-8.452-8.451s3.792-8.451 8.452-8.451 8.45 3.79 8.45 8.45c0 4.66-3.79 8.452-8.45 8.452m0-21.645c-7.275 0-13.194 5.919-13.194 13.194 0 7.275 5.919 13.194 13.194 13.194 7.275 0 13.193-5.92 13.193-13.194 0-7.275-5.918-13.194-13.193-13.194"/>
        <path d="M16.378 5.433c-6.095 0-11.053 4.957-11.053 11.051v21.39c0 6.095 4.958 11.053 11.053 11.053h21.388c6.095 0 11.053-4.958 11.053-11.053v-21.39c0-6.094-4.958-11.051-11.053-11.051H16.378zm21.388 48.534H16.378C7.504 53.967.285 46.748.285 37.874v-21.39C.285 7.612 7.504.393 16.378.393h21.388c8.874 0 16.093 7.219 16.093 16.091v21.39c0 8.874-7.219 16.093-16.093 16.093z"/>
    </g>
</svg>
