<svg xmlns="http://www.w3.org/2000/svg" width="279" height="60" viewBox="0 0 279 60">
    <g fill="none" fill-rule="evenodd">
        <text fill="#FFF100" font-family="HelveticaNeue-Medium, Helvetica Neue" font-size="20" font-weight="400" letter-spacing="3.333">
            <tspan x="80" y="25">DIVE CONCEPTS</tspan>
        </text>
        <text fill="#FFF100" font-family="HelveticaNeue-Light, Helvetica Neue" font-size="20" font-weight="300" letter-spacing="3.333">
            <tspan x="80" y="51">BALI</tspan>
        </text>
        <path fill="#FFF100" d="M13.441 23.086s2.897 1.422 9.28-1.077c0 0 5.126-1.834 6.265-3.654l-.754-1.38s-.616.818-1.58-1.535c-.96-2.35-.909-2.449-.175-2.827 1.633-.841 4.514 3.708 4.514 3.708s.454.019 1.018-.044c.647-.073 1.851.108 2.741 1.129 0 0 3.25 3.646 6.414 4.739.646.224 3.641 1.312 7.707.746 4.063-.568 15.552.576 17.904 1.709 0 0 3.634 1.616 1.934 1.807 0 0-5.144-.718-13.705 5.692 0 0-5.296 4.295-7.54 7.608-2.241 3.311-6.615 7.352-7.374 7.679 0 0-.158.47.012.778.172.308 4.496 8.607 4.496 8.607s-5.09-7.822-5.51-8.291c-.418-.47-1.233-.463-1.233-.463s-4.8.52-11.262-.377c-2.425-.333-11.348-2.02-14.946-1.446-3.6.576-5.162.21-8.718 2.654 0 0-1.736 2.244-1.938-.434-.204-2.676 4.712-8.566 9.003-12.151.552-.462 3.118-2.604 2.045-6.452 0 0-1.305-1.327-1.548-2.537-.241-1.208.048-1.933.759-2.422 0 0-1.852-2.481-1.909-2.68-.158-.257-.8-2.4 1.002-2.066 1.802.333 3.14 2.754 3.098 2.98"/>
        <path fill="#1D79B7" d="M55.532 32.881c-.075.06-.456.377-1.015.857-.036.243-.07.487-.114.729a24.876 24.876 0 0 1-11.666 16.81l2.52 4.386c7.196-4.292 12.502-11.544 14.117-20.278.328-1.775.488-3.556.5-5.327v-.003a37.928 37.928 0 0 0-4.342 2.826M11.765 47.156c-.79.126-1.488.21-2.108.283-1.321.156-2.339.278-3.474.71 4.507 5.898 10.954 9.865 18.309 11.223 1.81.338 3.651.506 5.48.506 4.783 0 9.334-1.14 13.383-3.174l-2.8-4.257a24.711 24.711 0 0 1-10.584 2.374c-1.52 0-3.052-.143-4.557-.42-5.212-.965-9.87-3.506-13.452-7.27-.068.009-.137.016-.197.025M29.908 0C15.498 0 3.133 10.3.506 24.491-.641 30.697.179 36.96 2.8 42.562c1.087-1.45 2.394-2.92 3.711-4.245A24.746 24.746 0 0 1 5.48 25.411C7.663 13.617 17.937 5.058 29.908 5.058c1.52 0 3.052.14 4.56.42 6.534 1.209 12.207 4.89 15.97 10.365a25.002 25.002 0 0 1 3.07 6.117c1.687.059 3.57.191 5.402.378a29.971 29.971 0 0 0-4.303-9.36C50.075 6.388 43.25 1.958 35.387.504A30.147 30.147 0 0 0 29.909 0z"/>
    </g>
</svg>
