<svg xmlns="http://www.w3.org/2000/svg" width="600" height="300" viewBox="0 0 600 300">
    <g fill="#343D46" fill-rule="evenodd" opacity=".74">
        <path d="M117.238 120.704s25.098 12.338 80.397-9.35c0 0 44.413-15.924 54.284-31.724l-6.537-11.976s-5.335 7.099-13.684-13.32c-8.324-20.403-7.878-21.26-1.522-24.541 14.15-7.304 39.115 32.185 39.115 32.185s3.928.165 8.816-.383c5.606-.63 16.04.938 23.75 9.799 0 0 28.165 31.649 55.566 41.136 5.597 1.946 31.552 11.39 66.78 6.48 35.198-4.933 134.736 4.997 155.115 14.83 0 0 31.486 14.028 16.76 15.694 0 0-44.57-6.24-118.74 49.404 0 0-45.883 37.288-65.326 66.04-19.423 28.745-57.318 63.825-63.893 66.656 0 0-1.366 4.08.106 6.756 1.488 2.679 38.957 74.719 38.957 74.719s-44.108-67.899-47.738-71.978c-3.63-4.07-10.686-4.014-10.686-4.014s-41.584 4.52-97.57-3.271c-21.015-2.895-98.324-17.543-129.492-12.556-31.19 5.005-44.725 1.82-75.532 23.038 0 0-15.044 19.48-16.797-3.765-1.762-23.231 40.83-74.36 78.004-105.482 4.78-4.007 27.015-22.598 17.714-56.003 0 0-11.305-11.52-13.41-22.022-2.085-10.485.42-16.782 6.575-21.02 0 0-16.044-21.541-16.532-23.263-1.376-2.236-6.93-20.84 8.675-17.939 15.61 2.891 27.203 23.905 26.845 25.87"/>
        <path d="M481.711 205.616c-.65.525-3.947 3.275-8.777 7.448-.317 2.119-.613 4.24-.992 6.344-11.584 62.892-49.487 115.147-100.92 146.232l21.806 38.154c62.243-37.338 108.15-100.423 122.118-176.404 2.84-15.439 4.227-30.928 4.33-46.336l-.007-.028c-11.425 6.36-23.941 14.355-37.558 24.59M259.301-79C134.36-79 27.16 10.04 4.386 132.707c-9.946 53.641-2.835 107.77 19.898 156.21 9.423-12.54 20.755-25.243 32.174-36.697-12.74-35.37-15.989-73.605-8.95-111.566C66.436 38.712 155.513-35.281 259.302-35.281a218.52 218.52 0 0 1 39.529 3.627c56.647 10.457 105.832 42.285 138.458 89.603a215.87 215.87 0 0 1 26.62 52.878c14.624.51 30.95 1.652 46.83 3.264-7.53-28.55-20.048-55.875-37.302-80.91-39.294-56.955-98.462-95.249-166.63-107.824A262.124 262.124 0 0 0 259.302-79z"/>
    </g>
</svg>
