<svg xmlns="http://www.w3.org/2000/svg" width="66" height="76" viewBox="0 0 66 76">
    <defs>
        <filter id="a" width="327.5%" height="262.5%" x="-113.8%" y="-68.8%" filterUnits="objectBoundingBox">
            <feOffset dy="5" in="SourceAlpha" result="shadowOffsetOuter1"/>
            <feGaussianBlur in="shadowOffsetOuter1" result="shadowBlurOuter1" stdDeviation="10"/>
            <feColorMatrix in="shadowBlurOuter1" result="shadowMatrixOuter1" values="0 0 0 0 0.0756078833 0 0 0 0 0.11740375 0 0 0 0 0.159199617 0 0 0 0.500679348 0"/>
            <feMerge>
                <feMergeNode in="shadowMatrixOuter1"/>
                <feMergeNode in="SourceGraphic"/>
            </feMerge>
        </filter>
    </defs>
    <g fill="#FFF100" fill-rule="nonzero" filter="url(#a)" transform="translate(19 14)">
        <path d="M24.046 4.38A13.714 13.714 0 0 0 14.17.456 13.714 13.714 0 0 0 4.187 4.38a13.714 13.714 0 0 0-3.73 10.204c0 6.72 4.416 14.564 12.727 23.26l.987 1.014.988-1.015c8.393-8.722 12.672-16.457 12.727-23.287a13.714 13.714 0 0 0-3.84-10.176zm-9.875 30.5C7.013 27.145 3.2 20.288 3.2 14.5c-.203-3.03.86-6.01 2.935-8.228A10.971 10.971 0 0 1 14.17 3.2a10.971 10.971 0 0 1 8.01 3.1 11.218 11.218 0 0 1 3.044 8.228c-.082 5.76-3.84 12.59-11.054 20.352z"/>
        <path d="M14.171 8.686a5.486 5.486 0 1 0 0 10.971 5.486 5.486 0 0 0 0-10.971zm0 7.817a2.359 2.359 0 1 1 0-4.718 2.359 2.359 0 0 1 0 4.718z"/>
    </g>
</svg>
