<svg xmlns="http://www.w3.org/2000/svg" width="171" height="240" viewBox="0 0 171 240">
    <g fill="#4F5B66" fill-rule="nonzero">
        <path d="M147.044 24.798A85.248 85.248 0 0 0 85.665.418a85.248 85.248 0 0 0-62.06 24.38A85.248 85.248 0 0 0 .417 88.223c0 41.771 27.45 90.533 79.11 144.58l6.138 6.309 6.138-6.308c52.172-54.218 78.77-102.298 79.11-144.752a85.248 85.248 0 0 0-23.869-63.254zM85.665 214.39c-44.5-48.08-68.198-90.704-68.198-126.679A68.198 68.198 0 0 1 35.71 36.563a68.198 68.198 0 0 1 49.955-19.096 68.198 68.198 0 0 1 49.785 19.266 69.733 69.733 0 0 1 18.925 51.149c-.511 35.804-23.87 78.258-68.71 126.508z"/>
        <path d="M85.665 51.566c-18.832 0-34.099 15.267-34.099 34.1 0 18.832 15.267 34.099 34.1 34.099 18.832 0 34.099-15.267 34.099-34.1 0-18.832-15.267-34.099-34.1-34.099zm0 48.592a14.663 14.663 0 1 1 14.663-14.493c-.093 8.032-6.63 14.493-14.663 14.493z"/>
    </g>
</svg>
