<svg xmlns="http://www.w3.org/2000/svg" width="64" height="64" viewBox="0 0 64 64">
    <g fill="none" fill-rule="evenodd" transform="translate(2 2)">
        <circle cx="30" cy="30" r="30" fill="#131E29" stroke="#FFF100" stroke-width="3"/>
        <path fill="#FFF100" d="M30 14.571c-8.52 0-15.429 6.907-15.429 15.43 0 6.316 3.8 11.745 9.236 14.13-.044-1.077-.008-2.37.268-3.542.297-1.253 1.985-8.408 1.985-8.408s-.493-.985-.493-2.44c0-2.287 1.325-3.995 2.976-3.995 1.403 0 2.081 1.054 2.081 2.316 0 1.411-.9 3.521-1.362 5.476-.386 1.637.82 2.972 2.435 2.972 2.924 0 4.892-3.755 4.892-8.203 0-3.382-2.278-5.913-6.42-5.913-4.68 0-7.596 3.49-7.596 7.388 0 1.346.396 2.294 1.017 3.027.286.337.326.473.222.86-.074.284-.244.967-.314 1.238-.103.391-.42.53-.773.387-2.155-.88-3.16-3.242-3.16-5.895 0-4.382 3.697-9.639 11.027-9.639 5.89 0 9.768 4.263 9.768 8.84 0 6.051-3.365 10.573-8.325 10.573-1.666 0-3.233-.9-3.77-1.923 0 0-.895 3.555-1.085 4.241-.326 1.19-.967 2.38-1.553 3.305 1.388.41 2.854.633 4.373.633 8.52 0 15.429-6.907 15.429-15.429S38.519 14.571 30 14.571"/>
    </g>
</svg>
