<svg xmlns="http://www.w3.org/2000/svg" width="64" height="64" viewBox="0 0 64 64">
    <g fill="none" fill-rule="evenodd" transform="translate(2 2)">
        <circle cx="30" cy="30" r="30" fill="#131E29" stroke="#FFF100" stroke-width="3"/>
        <path fill="#FFF100" d="M38.007 33.353c-.419-.229-2.475-1.339-2.861-1.496-.386-.156-.667-.238-.968.178-.3.416-1.153 1.345-1.412 1.62-.26.276-.51.301-.928.072-.418-.229-1.775-.73-3.349-2.244-1.225-1.178-2.028-2.605-2.261-3.04-.233-.437-.002-.66.22-.864.199-.184.445-.482.668-.723.221-.24.3-.415.452-.694.153-.28.092-.531-.007-.749-.1-.216-.873-2.347-1.196-3.213-.324-.867-.684-.738-.933-.748-.248-.008-.531-.055-.816-.065-.284-.011-.75.078-1.156.49-.407.412-1.547 1.402-1.625 3.5-.079 2.097 1.372 4.182 1.575 4.474.202.292 2.771 4.84 7.04 6.71 4.271 1.868 4.294 1.298 5.077 1.257.784-.042 2.56-.938 2.954-1.92.392-.981.424-1.834.324-2.016-.1-.182-.38-.3-.798-.529m-7.831 10.109c-2.824 0-5.453-.847-7.649-2.3l-5.343 1.711 1.737-5.162a13.83 13.83 0 0 1-2.648-8.152c0-7.667 6.237-13.904 13.903-13.904 7.667 0 13.904 6.237 13.904 13.904 0 7.666-6.237 13.903-13.904 13.903m0-30.605c-9.223 0-16.7 7.477-16.7 16.702 0 3.155.875 6.106 2.395 8.623l-3.014 8.96 9.247-2.96a16.633 16.633 0 0 0 8.072 2.078c9.225 0 16.702-7.478 16.702-16.701 0-9.225-7.477-16.702-16.702-16.702"/>
    </g>
</svg>
