<svg xmlns="http://www.w3.org/2000/svg" width="321" height="161" viewBox="0 0 321 161">
    <path fill="#4F5B66" fill-rule="evenodd" d="M139.4 10.16L110.76 126H88.84L73 58.8c-1.76-7.68-2.88-16.48-2.88-16.48h-.32s-1.12 8.8-2.88 16.48L51.24 126H29.32L.68 10.16H23.4l15.04 72.8C39.88 89.84 41 98.32 41 98.32h.32s.96-8.48 2.56-15.36l16.8-72.8H79.4l16.8 72.8c1.6 6.88 2.56 15.36 2.56 15.36h.32s1.12-8.48 2.56-15.36l15.04-72.8h22.72zM223.569 126h-21.92V69.68c0-9.44-5.76-14.24-15.68-14.24-4.32 0-9.12 1.28-12.48 3.2V126h-21.76V.4h21.76v41.92c5.12-2.4 11.68-4 18.08-4 20.32 0 32 10.24 32 29.12V126zm97.289-86.24l-45.12 120.64h-22.88l12.96-34.4-32.48-86.24h24.64L274.138 94c1.92 6.4 2.88 13.6 2.88 13.6h.32s.96-7.2 2.88-13.6l16.16-54.24h24.48z"/>
</svg>
